<svg id="图层_1" data-name="图层 1" xmlns="http://www.w3.org/2000/svg" viewBox="0 0 30 30.01"><defs><style>.cls-1{fill:#3f3f5b;}</style></defs><path class="cls-1" d="M20,5C11.73,5,5,10.77,5,17.86c0,3.9,2.11,7.57,5.83,10.09l2.82,1.74a27.93,27.93,0,0,1-1.12,3.88,1.09,1.09,0,0,0,.28,1.15,1.07,1.07,0,0,0,1.17.19c1.22-.54,4.93-2.31,6.27-4.2C28.41,30.6,35,24.87,35,17.85S28.28,5,20,5Zm2.29,16H15.75a1.07,1.07,0,0,1,0-2.14h6.54a1.07,1.07,0,0,1,0,2.14Zm2-4.28H15.75a1.08,1.08,0,0,1,0-2.15h8.57a1.08,1.08,0,0,1,0,2.15Z" transform="translate(-5 -5)"/></svg>