<svg id="图层_1" data-name="图层 1" xmlns="http://www.w3.org/2000/svg" viewBox="0 0 40 28.17"><defs><style>.cls-1{fill:#3f3f5b;}</style></defs><path class="cls-1" d="M20,22.88,1.37,6.48a1.5,1.5,0,0,1,.29-.06H38.34a2.52,2.52,0,0,1,.29.06ZM40,7.78V33.55a2.23,2.23,0,0,1-.08.45L26.69,19.39,39.9,7.23A1.92,1.92,0,0,1,40,7.78ZM.1,7.23,13.31,19.39.08,34A2.11,2.11,0,0,1,0,33.55V7.78a1.92,1.92,0,0,1,.1-.55ZM25.4,20.41,38.74,34.5a1.75,1.75,0,0,1-.41.08H1.66a1.77,1.77,0,0,1-.4-.08L14.6,20.41l4.87,4.29a.79.79,0,0,0,1.06,0l4.87-4.29Z" transform="translate(0 -6.42)"/></svg>